<svg xmlns="http://www.w3.org/2000/svg" version="1.1" xmlns:xlink="http://www.w3.org/1999/xlink" xmlns:svgjs="http://svgjs.dev/svgjs" width="1000" height="1000" viewBox="0 0 1000 1000"><rect width="1000" height="1000" fill="#ffffff"></rect><g transform="matrix(0.7,0,0,0.7,149.57575757575756,282.1265587044535)"><svg viewBox="0 0 396 247" data-background-color="#ffffff" preserveAspectRatio="xMidYMid meet" height="623" width="1000" xmlns="http://www.w3.org/2000/svg" xmlns:xlink="http://www.w3.org/1999/xlink"><g id="tight-bounds" transform="matrix(1,0,0,1,0.2400000000000091,-0.09999999999999432)"><svg viewBox="0 0 395.52 247.2" height="247.2" width="395.52"><g><svg></svg></g><g><svg viewBox="0 0 395.52 247.2" height="247.2" width="395.52"><g transform="matrix(1,0,0,1,75.54432,62.284231621928164)"><svg viewBox="0 0 244.43135999999998 122.63153675614366" height="122.63153675614366" width="244.43135999999998"><g><svg viewBox="0 0 244.43135999999998 122.63153675614366" height="122.63153675614366" width="244.43135999999998"><g><svg viewBox="0 0 244.43135999999998 122.63153675614366" height="122.63153675614366" width="244.43135999999998"><g><svg viewBox="0 0 244.43135999999998 122.63153675614366" height="122.63153675614366" width="244.43135999999998"><g><svg viewBox="0 0 244.43135999999998 122.63153675614366" height="122.63153675614366" width="244.43135999999998" id="textblock"><g><svg viewBox="0 0 244.43135999999998 122.63153675614366" height="122.63153675614366" width="244.43135999999998"><g transform="matrix(1,0,0,1,0,0)"><svg width="244.43135999999998" viewBox="2.369999885559082 -32.400001525878906 64.56999969482422 32.400001525878906" height="122.63153675614366" data-palette-color="#2a160c"><path d="M27.22 0L22.88 0 22.88-12.13 8.86-12.13 2.37-18.63 2.37-25.93 8.86-32.4 12.52-32.4 12.52-20.9 27.42-20.9 33.69-14.4 33.69-6.47 27.22 0ZM22.88-26.56L14.23-26.56 14.23-32.4 27.2-32.4 32.81-26.76 32.81-23.32 22.88-23.32 22.88-26.56ZM2.37-6.47L2.37-9.72 13.16-9.72 13.16-5.86 21.17-5.86 21.17 0 7.81 0 2.37-6.47ZM41.26-25.34L41.26-32.4 66.94-32.4 66.94-6.47 60.47 0 56.15 0 56.15-25.34 41.26-25.34ZM48.53-13.57L48.53-6.47 54.44-6.47 54.44 0 43.82 0 37.33-6.47 37.33-13.57 48.53-13.57Z" opacity="1" transform="matrix(1,0,0,1,0,0)" fill="#000000" class="undefined-text-0" data-fill-palette-color="primary" id="text-0"></path></svg></g></svg></g></svg></g></svg></g></svg></g></svg></g></svg></g><g><path d="M0 123.6c0-68.262 55.338-123.6 123.6-123.6 39.7 0 75.029 18.717 97.643 47.809l-7.106 0c-21.659-25.845-54.179-42.28-90.537-42.279-65.209 0-118.07 52.862-118.07 118.07 0 65.209 52.862 118.07 118.07 118.07 36.359 0 68.879-16.434 90.537-42.279l7.106 0c-22.614 29.092-57.942 47.809-97.643 47.809-68.262 0-123.6-55.338-123.6-123.6z" fill="#2a160c" stroke="transparent" data-fill-palette-color="tertiary"></path></g></svg></g><defs></defs></svg><rect width="395.52" height="247.2" fill="none" stroke="none" visibility="hidden"></rect></g></svg></g></svg>